<svg xmlns="http://www.w3.org/2000/svg" viewBox="0 0 64 64">
  <path d="M32 8C18.6 8 10 17.4 10 30.2c0 10.5 7.1 16.1 16.4 21.6L32 55l5.6-3.2C46.9 46.3 54 40.7 54 30.2 54 17.4 45.4 8 32 8Z" fill="none" stroke="#139b92" stroke-width="5.5" stroke-linecap="round" stroke-linejoin="round"/>
  <path d="M32 55c-6.4-7.5-16.4-8.8-19.3-3.6-2.6 4.8 4.8 9.2 11.1 5.8 5.4-2.9 9.3-9.8 14.5-12.8 5.4-3.1 10.6-.3 10.6 4.2 0 4-4.2 6.5-8.6 5.7M39.7 54.2l6.2 5.1L58 42.1" fill="none" stroke="#101922" stroke-width="5.5" stroke-linecap="round" stroke-linejoin="round"/>
</svg>
