<svg xmlns="http://www.w3.org/2000/svg" viewBox="0 0 64 64">
  <circle cx="32" cy="32" r="31" fill="#101922"/>
  <circle cx="32" cy="30.5" r="20.5" fill="none" stroke="#42cdbb" stroke-width="3.2"/>
  <path d="M18.8 31.8a14.3 14.3 0 0 1 8.3-13.1M43.9 38.6a14.4 14.4 0 0 1-6.7 5.3" fill="none" stroke="#fff4df" stroke-width="2.4" stroke-linecap="round"/>
  <path d="m18.7 35.3 8.1 8.2 18.1-24" fill="none" stroke="#42cdbb" stroke-width="3.7" stroke-linecap="round" stroke-linejoin="round"/>
  <path d="m31.6 35.4 15.7-18.9-10.8 22.3Z" fill="#fff4df"/>
  <circle cx="33.4" cy="34.4" r="4.5" fill="#fff4df"/>
  <circle cx="33.4" cy="34.4" r="2.1" fill="#101922"/>
  <path d="M16.6 45.4c5.6-3 11-1.6 15.9 1.1 4.6 2.5 9.6 2.1 14.9-1.5-2.2 5.2-7.1 8.3-14.5 8.3-8.4 0-14.1-2.4-17.2-5.3-.9-.9-.5-2 .9-2.6Z" fill="#42cdbb"/>
</svg>
