<svg xmlns="http://www.w3.org/2000/svg" viewBox="0 0 1000 800"><rect width="1000" height="800" fill="#c8b79d"/><ellipse cx="500" cy="675" rx="385" ry="65" fill="#766450" opacity=".32"/><g><path d="M165 520Q150 490 190 470H820Q850 500 830 550H190Q160 548 165 520Z" fill="#526c67"/><path d="M210 395Q195 365 235 345H790Q820 375 800 425H235Q205 423 210 395Z" fill="#c1745f"/><path d="M135 275Q120 245 160 225H850Q880 255 860 305H160Q130 303 135 275Z" fill="#ded2ae"/></g><g fill="#f6efe0" font-family="Georgia" font-size="31"><text x="245" y="404">QUIET INTERFACES</text><text x="250" y="530">DESIGN SYSTEMS</text></g><text x="265" y="283" fill="#3c3933" font-family="Georgia" font-size="31">THINGS WORTH KEEPING</text><path d="M760 185q20-110 100-130q-5 80-100 130Zm5 5q95-70 150-10q-80 68-150 10Z" fill="#57745b"/></svg>
