<svg xmlns="http://www.w3.org/2000/svg" viewBox="0 0 1200 850"><defs><linearGradient id="r" y2="1"><stop stop-color="#35495b"/><stop offset="1" stop-color="#111b27"/></linearGradient><linearGradient id="p"><stop stop-color="#f4ba78"/><stop offset="1" stop-color="#d77671"/></linearGradient></defs><rect width="1200" height="850" fill="url(#r)"/><g fill="#162330"><rect x="0" y="310" width="230" height="540"/><rect x="260" y="170" width="290" height="680"/><rect x="590" y="270" width="230" height="580"/><rect x="860" y="120" width="340" height="730"/></g><g fill="url(#p)" opacity=".85"><rect x="85" y="420" width="40" height="75"/><rect x="340" y="280" width="50" height="80"/><rect x="450" y="500" width="50" height="80"/><rect x="670" y="370" width="45" height="75"/><rect x="960" y="240" width="45" height="85"/><rect x="1070" y="480" width="45" height="85"/></g><g stroke="#adc7d7" stroke-width="5" opacity=".55"><path d="M80 0 0 220M250 0 110 390M470 0 290 520M720 0 540 520M970 0 780 550M1190 0 950 690"/></g><ellipse cx="615" cy="790" rx="530" ry="30" fill="#e2a87e" opacity=".3"/></svg>
