<svg xmlns="http://www.w3.org/2000/svg" viewBox="0 0 800 1100"><rect width="800" height="1100" fill="#b8a995"/><path d="M150 85H650V990l-25-17-25 17-25-17-25 17-25-17-25 17-25-17-25 17-25-17-25 17-25-17-25 17-25-17-25 17-25-17-25 17-25-17-25 17-25-17-25 17-25-17-25 17-25-17V85Z" fill="#f8f3e8"/><g fill="#2f2d29" font-family="monospace"><text x="255" y="190" font-size="36" font-weight="700">PAPER &amp; PINE</text><text x="250" y="235" font-size="19">17 JUL 2026 · 16:18</text><text x="210" y="350" font-size="25">NOTEBOOK          9.90</text><text x="210" y="405" font-size="25">PENS              5.00</text><path d="M210 470H590" stroke="#2f2d29" stroke-width="3" stroke-dasharray="12 8"/><text x="210" y="545" font-size="30" font-weight="700">TOTAL            14.90</text><text x="310" y="730" font-size="20">THANK YOU</text></g></svg>
